<svg width="24" height="24" viewBox="0 0 24 24" fill="none" xmlns="http://www.w3.org/2000/svg">
<path d="M22 18.2222C22 18.6937 21.818 19.1459 21.4941 19.4793C21.1702 19.8127 20.7308 20 20.2727 20H4.72727C4.26917 20 3.82983 19.8127 3.50591 19.4793C3.18198 19.1459 3 18.6937 3 18.2222V8.44444C3 7.97295 3.18198 7.52076 3.50591 7.18737C3.82983 6.85397 4.26917 6.66667 4.72727 6.66667H8.18182L9.90909 4H15.0909L16.8182 6.66667H20.2727C20.7308 6.66667 21.1702 6.85397 21.4941 7.18737C21.818 7.52076 22 7.97295 22 8.44444V18.2222Z" stroke="black" stroke-width="2" stroke-linecap="round" stroke-linejoin="round"/>
<path d="M12.5 16C14.433 16 16 14.433 16 12.5C16 10.567 14.433 9 12.5 9C10.567 9 9 10.567 9 12.5C9 14.433 10.567 16 12.5 16Z" stroke="black" stroke-width="2" stroke-linecap="round" stroke-linejoin="round"/>
</svg>
