<svg width="25" height="25" viewBox="0 0 25 25" fill="none" xmlns="http://www.w3.org/2000/svg">
<path fill-rule="evenodd" clip-rule="evenodd" d="M12.0221 1.05783L12.0281 2.87596C16.7524 2.86815 21.2324 7.30179 21.2402 12.0274C21.248 16.7529 16.8132 21.2317 12.0888 21.2395C7.36449 21.2473 2.88452 16.8136 2.8767 12.0881C2.87296 9.82691 4.06544 7.70001 5.61149 6.11084L5.62115 9.03053L7.91659 9.02293L7.89478 2.43054L1.6145 2.45131L1.62114 4.45893L4.22872 4.4503C2.44464 6.45122 1.01759 9.35069 1.02213 12.0942C1.03217 18.1689 5.9826 23.1042 12.0585 23.0942C18.1344 23.0841 23.0685 18.1324 23.0584 12.0578C23.0484 5.98309 18.098 1.04778 12.0221 1.05783Z" fill="white"/>
</svg>
