<svg width="25" height="24" viewBox="0 0 25 24" fill="none" xmlns="http://www.w3.org/2000/svg">
<g clip-path="url(#clip0_629_4936)">
<path d="M10.1942 4.02718C9.92564 4.0847 9.67193 4.23041 9.32077 4.52157C9.1647 4.65155 8.93545 4.82835 8.81839 4.91676L8.59886 5.0676L7.42185 5.06954C6.09833 5.07173 5.91768 5.10316 5.53724 5.40475C5.37628 5.52955 5.2642 5.68021 5.15713 5.9087L5.00627 6.23066L5.01215 9.79024L5.01804 13.3498L5.16018 13.6609C5.32686 14.0394 5.70354 14.4176 6.03096 14.5364C6.2362 14.6087 6.876 14.618 12.004 14.6095C18.4702 14.5988 18.0014 14.6308 18.4501 14.1993C18.5866 14.0694 18.7571 13.8408 18.8302 13.6954L18.9616 13.4305L18.9703 9.82423L18.979 6.22312L18.827 5.89647C18.6702 5.55945 18.4403 5.32633 18.1079 5.17122C17.9515 5.09364 17.7073 5.07329 16.6181 5.05434L15.3141 5.03055L14.9814 4.66269C14.6242 4.26892 14.3602 4.11369 13.9352 4.02618C13.6176 3.96444 10.4871 3.96443 10.1942 4.02718ZM14.0739 5.22459C14.1815 5.29705 14.4016 5.48868 14.563 5.64927C15.0131 6.08958 15.0326 6.09474 16.3464 6.09256C16.9861 6.09151 17.5625 6.1165 17.6651 6.14746C18.012 6.24548 18.002 6.1002 17.9935 9.85179L17.9844 13.1986L17.8235 13.365L17.6675 13.5364L12.0609 13.5613C5.82915 13.5872 6.23455 13.6124 6.07278 13.2443C5.96004 12.9954 5.94457 6.59752 6.05653 6.37421C6.16847 6.13534 6.32959 6.10913 7.61404 6.10701C8.96198 6.10478 9.01079 6.08913 9.49844 5.64208C9.83979 5.33018 10.0203 5.20016 10.2057 5.12721C10.3034 5.09072 10.9431 5.0741 12.1153 5.07735L13.8783 5.08481L14.0739 5.22459Z" fill="white"/>
<path d="M11.6001 6.61419C10.5015 6.77686 9.61879 7.53071 9.18602 8.67299C9.06931 8.97933 9.04514 9.12984 9.02644 9.6332C8.99393 10.6451 9.23924 11.3244 9.89972 12.0238C10.3009 12.4538 10.7507 12.7281 11.293 12.8725C11.6644 12.9705 12.3383 12.9694 12.7093 12.8702C13.754 12.5831 14.6365 11.6632 14.8984 10.5782C14.9954 10.1682 14.999 9.37425 14.9006 8.97487C14.5171 7.42921 13.0747 6.39901 11.6001 6.61419ZM12.8525 7.86265C14.6122 8.77817 14.2357 11.4978 12.2974 11.8642C11.2526 12.0631 10.2208 11.2605 10.0333 10.1089C9.8902 9.21666 10.3282 8.28712 11.0894 7.89151C11.4749 7.6885 11.6165 7.65713 12.1049 7.67708C12.4664 7.69205 12.5787 7.71781 12.8525 7.86265Z" fill="white"/>
<path d="M3.57043 9.19602C1.12537 10.2534 -0.219971 11.8279 0.0316025 13.3374C0.36711 15.3969 3.34432 17.1769 7.66287 17.9118C8.46404 18.0454 9.71944 18.1938 10.0662 18.1932L10.2762 18.1929L9.78867 18.7126L9.30114 19.2323L9.65828 19.6053L10.0105 19.9835L11.0734 18.8505L12.1313 17.7228L11.0696 16.5986L10.0031 15.4691L9.65206 15.8433L9.29617 16.2227L9.73649 16.6942L10.1768 17.1656L9.83489 17.1299C8.18878 16.9769 7.03099 16.7868 5.86813 16.4826C3.87956 15.9722 2.43274 15.2482 1.63523 14.3777C1.17531 13.87 1.03802 13.5433 1.03707 12.9674C1.03643 12.5834 1.0558 12.4848 1.17745 12.2147C1.4743 11.5708 2.34729 10.8325 3.41115 10.3327C3.68931 10.2025 3.9333 10.0775 3.9528 10.0567C3.9723 10.036 3.98167 9.79726 3.97634 9.52744L3.96087 9.02933L3.57043 9.19602Z" fill="white"/>
<path d="M20.0051 9.51683C20.006 10.0305 20.006 10.0305 20.1428 10.0926C21.5358 10.7077 22.4796 11.4482 22.8324 12.2C22.9452 12.4489 22.9649 12.5578 22.9655 12.9314C22.9661 13.305 22.9468 13.4192 22.8349 13.6736C22.6597 14.0683 22.1576 14.6243 21.6454 14.9884C20.2942 15.9506 17.7803 16.7279 15.1288 17.0177C14.6893 17.0651 14.2548 17.1177 14.1717 17.1282L14.0106 17.1544L14.0115 17.6681L14.0123 18.187L14.1491 18.1868C14.3884 18.1864 15.946 17.9814 16.5514 17.8715C19.764 17.285 22.3651 16.0406 23.4127 14.5859C24.5139 13.0586 24.062 11.4715 22.1306 10.1049C21.7345 9.82531 20.5956 9.2149 20.2144 9.07543L20.0043 8.99795L20.0051 9.51683Z" fill="white"/>
</g>
<defs>
<clipPath id="clip0_629_4936">
<rect width="24" height="24" fill="white" transform="translate(0.0198364)"/>
</clipPath>
</defs>
</svg>
