<svg width="25" height="25" viewBox="0 0 25 25" fill="none" xmlns="http://www.w3.org/2000/svg">
<path fill-rule="evenodd" clip-rule="evenodd" d="M17.6195 3.88287C16.4663 2.34592 14.0195 3.16116 14.0195 5.08236V8.08863C9.34234 7.94027 6.24239 9.58606 4.23995 11.845C2.15818 14.1935 1.35621 17.0978 1.04146 18.9821C0.903565 19.8076 1.43894 20.403 2.00466 20.6068C2.54842 20.8027 3.27286 20.7076 3.7446 20.1324C5.32508 18.2054 8.51953 15.5677 14.0195 15.5677V19.0763C14.0195 20.9975 16.4663 21.8127 17.6195 20.2758L22.4195 13.8785C23.2195 12.8123 23.2195 11.3463 22.4195 10.2801L17.6195 3.88287ZM16.0195 5.08236L20.8195 11.4796C21.0862 11.835 21.0862 12.3236 20.8195 12.679L16.0195 19.0763V14.5793C16.0195 14.027 15.5718 13.5793 15.0195 13.5793H14.0195C7.01953 13.5793 3.41861 17.5414 3.41861 17.5414C3.83677 16.1154 4.54459 14.5164 5.7366 13.1717C7.30119 11.4066 9.51953 10.0793 14.0195 10.0793H15.0195C15.5718 10.0793 16.0195 9.63162 16.0195 9.07934V5.08236Z" fill="white"/>
</svg>
